<svg xmlns="http://www.w3.org/2000/svg" width="5000" height="1500" viewBox="0 0 5000 1500">
  <defs>
    <style>
      .cls-1 {
        fill: #16aa88;
        fill-rule: evenodd;
      }
    </style>
  </defs>
  <path id="Twitt.in" class="cls-1" d="M4881.75,1204.09q-59.76,73.665-128.52,120.88-68.775,47.235-156.3,47.23-70.86,0-106.98-40.98-36.135-40.965-36.12-118.79,0-38.88,19.45-138.94,18.045-87.525,18.06-120.869,0-22.207-15.28-22.229-18.075,0-50.71,46.543-32.67,46.568-66.69,122.955a955.178,955.178,0,0,0-54.88,161.17q-15.3,65.31-35.43,88.22-20.16,22.92-63.21,22.92-52.83,0-74.33-55.57a230.106,230.106,0,0,1-10.09-34.97q-97.41,90.555-185.1,90.54-90.33,0-131.29-63.91-40.995-63.885-40.99-169.5,0-62.52,15.98-160.466,15.96-97.948,40.99-182.7,12.495-44.448,33.34-61.131t66.69-16.672q70.86,0,70.86,47.238,0,34.745-26.4,161.164-33.345,152.844-33.35,207.016,0,41.67,11.12,63.91,11.1,22.23,37.51,22.23,25.005,0,62.52-34.74,26.985-24.975,66.93-70.84,3.315-166.89,51.15-318.175,12.495-40.279,40.98-59.047t79.89-18.756q27.78,0,38.9,6.947,11.1,6.967,11.12,26.4,0,22.24-20.84,100.033-13.9,55.586-22.23,97.254t-13.9,102.807q45.855-119.466,102.81-194.5t111.85-106.98q54.87-31.944,100.72-31.955,90.3,0,90.31,90.308,0,54.183-30.56,195.9-26.415,120.87-26.4,159.77,0,55.59,40.29,55.58,27.78,0,65.99-34.04t102.12-110.46q16.68-19.44,37.51-19.45,18.045,0,28.48,16.67t10.42,45.85Q4908.14,1173.54,4881.75,1204.09ZM3946.74,626.125q-58.365,0-87.53-27.092t-29.18-75.719q0-48.616,38.21-81.277,38.19-32.628,95.17-32.649,51.375,0,83.36,25.008,31.95,25.008,31.95,70.856,0,55.585-36.12,88.224Q4006.45,626.136,3946.74,626.125ZM3517.44,1372.2q-61.155,0-92.39-33.34-31.26-33.345-31.26-87.53,0-62.52,35.42-100.03t99.34-37.51q61.125,0,92.39,29.87t31.26,88.22q0,63.915-36.12,102.12Q3579.93,1372.22,3517.44,1372.2Zm-348.71-47.23q-70.86,47.235-162.55,47.23-169.53,0-236.19-141.71-36.15,58.35-95.87,100.03-59.745,41.685-127.82,41.68-132,0-193.81-107.67a385.319,385.319,0,0,1-29.67-65.91q-2.07,2.835-4.35,5.47-137.55,168.12-257.03,168.11-90.33,0-131.29-63.91-41-63.885-40.99-169.5,0-13.785.78-29.31a457.787,457.787,0,0,1-81.36,7.08q-61.155,0-115.31-16.67-40.32,65.325-88.92,134.77-55.59,79.185-95.17,108.37-39.6,29.175-89.61,29.17-55.59,0-84.06-43.07-28.485-43.035-35.43-141.71L1293.14,1086q-43.08,116.7-77.11,177.83-34.065,61.155-68.08,84.75-34.065,23.64-79.89,23.62-56.985,0-89.61-44.46-32.661-44.445-40.986-140.32-16.673-194.49-16.672-340.389V798.4q1.368-45.847,25.008-63.91,23.609-18.039,70.86-18.061,36.105,0,53.49,15.977,17.355,15.989,17.36,53.49,0,159.786,19.45,415.41,94.47-198.66,173.67-414.021,15.27-41.681,36.82-56.268,21.525-14.589,52.1-14.588,37.515,0,52.1,15.283,14.6,15.3,14.59,54.184,0,159.786,19.45,415.41,83.355-123.63,125.04-197.28-20.835-40.284-20.84-95.868,0-47.216,20.84-91.7,20.835-44.45,56.96-72.246,36.12-27.777,81.97-27.787,40.29,0,65.3,28.481t25.01,82.666q0,62.521-33.34,143.1,50.58-2.654,133.14-19.378a1460.61,1460.61,0,0,1,36.35-155.68q12.51-44.448,33.35-61.131t66.69-16.672q70.845,0,70.85,47.238,0,34.745-26.39,161.164-33.345,152.844-33.35,207.016,0,41.67,11.12,63.91,11.1,22.23,37.51,22.23,25.005,0,62.52-34.74,37.515-34.71,100.03-109.76,11.835-13.8,25.77-17.8-3.555-39.645-3.56-83.618,0-68.056,6.95-151.439h-56.96q-41.685,0-56.27-15.283t-14.59-48.627q0-77.793,62.52-77.8h84.75q26.37-147.249,73.64-266.754,47.205-119.473,113.92-190.341,66.69-70.855,144.49-70.856,58.365,0,91.7,51.406t33.35,129.209q0,195.9-151.44,347.336h126.43q26.37-147.249,73.63-266.754Q2870,294.083,2936.71,223.215q66.69-70.855,144.49-70.856,58.35,0,91.7,51.406t33.34,129.209q0,195.9-151.44,347.336h126.43q22.215,0,31.96,9.725,9.7,9.736,9.72,36.123,0,95.865-156.99,95.865H2897.81q-4.17,66.688-4.17,136.156,0,144.511,34.04,202.841,34.02,58.35,107.67,58.36,59.73,0,105.59-36.13,45.855-36.105,108.37-108.37,16.68-19.44,37.51-19.45,18.045,0,28.48,16.67t10.42,45.85q0,55.59-26.39,86.14Q3239.57,1277.755,3168.73,1324.97ZM2642.17,367.707q0-81.96-30.57-81.971-20.835,0-46.54,52.1-25.725,52.1-48.63,144.492-22.92,92.414-38.21,204.929,81.975-70.857,122.96-159.08Q2642.145,439.963,2642.17,367.707Zm87.53,454.316H2465.72q-4.17,66.688-4.17,136.156,0,140.342,29.87,200.761,29.865,60.435,84.06,60.44,41.685,0,83.36-38.91,41.685-38.88,70.86-95.86-6.975-43.05-6.95-111.148Q2722.75,905.406,2729.7,822.023Zm303.57-293.846q40.965-88.214,40.98-160.47,0-81.96-30.56-81.971-20.85,0-46.55,52.1t-48.62,144.492q-22.92,92.414-38.21,204.929Q2992.27,616.4,3033.27,528.177Zm-960.72,97.948q-58.35,0-87.52-27.092-29.19-27.092-29.18-75.719t38.21-81.277q38.19-32.628,95.17-32.649,51.375,0,83.36,25.008,31.935,25.008,31.95,70.856,0,55.585-36.12,88.224Q2132.27,626.136,2072.55,626.125ZM1155.6,373.265q-125.04-9.7-195.2-13.2-70.173-3.451-184.088-4.863-51.417,255.651-94.476,514.058-15.3,94.5-31.955,218.819-16.673,124.365-22.229,200.76-2.8,40.32-33.345,61.83-30.576,21.555-73.635,21.53-45.847,0-70.856-22.23-25.01-22.2-25.009-58.35,0-33.345,10.42-110.45t24.314-161.86q15.272-84.729,23.619-147.271,15.272-105.569,34.733-209.791,19.44-104.2,38.9-197.287,4.168-20.84,9.726-47.932,5.535-27.091,12.5-60.436-136.177,4.167-213.959,22.229-77.826,18.072-110.453,50.711-32.661,32.661-32.65,84.055,0,47.249,27.787,90.308a41.514,41.514,0,0,1,5.557,20.84q0,26.409-31.26,49.322t-64.6,22.924q-23.641,0-38.9-13.893-27.809-23.609-45.848-67.384-18.072-43.764-18.061-99.338,0-118.072,77.109-189.645,77.108-71.541,234.8-104.9,157.67-33.343,404.994-33.344,152.817,0,243.831,5.557,90.975,5.568,159.08,18.062,43.05,8.335,64.6,29.176,21.525,20.839,21.54,48.627,0,45.849-25.7,66.689Q1211.155,377.433,1155.6,373.265Z"/>
</svg>
